<svg width="72" height="72" viewBox="0 0 72 72" fill="none" xmlns="http://www.w3.org/2000/svg">
<circle cx="36" cy="36" r="36" fill="#A9D6CB"/>
<path d="M18.6508 34.6595C17.8336 35.4805 17.3749 36.5917 17.375 37.75V44.1725C17.3717 47.0167 18.3162 49.781 20.0592 52.0285C21.8022 54.2761 24.2445 55.8788 27 56.5835V59.625C27 59.8571 27.0922 60.0796 27.2563 60.2437C27.4204 60.4078 27.6429 60.5 27.875 60.5H40.125C40.3571 60.5 40.5796 60.4078 40.7437 60.2437C40.9078 60.0796 41 59.8571 41 59.625V56.5835C43.7556 55.8788 46.1978 54.2761 47.9408 52.0285C49.6838 49.781 50.6283 47.0167 50.625 44.1725V40.8204C51.4664 40.798 52.2941 40.6016 53.0558 40.2435C53.8175 39.8853 54.4968 39.3733 55.0508 38.7396L57.4071 36.0621C57.49 35.9674 57.5514 35.8559 57.5872 35.7353C57.623 35.6147 57.6324 35.4877 57.6147 35.3632C57.597 35.2386 57.5527 35.1193 57.4847 35.0134C57.4167 34.9075 57.3267 34.8175 57.2208 34.7496L54.2125 32.8281C53.3601 32.2816 52.3846 31.957 51.3748 31.8838C50.3649 31.8106 49.3528 31.9911 48.4305 32.409L49.1156 31.2356L52.1781 30.1725C53.5637 29.6995 54.7325 28.7434 55.4708 27.4792C56.2092 26.2149 56.4676 24.7271 56.1988 23.288L55.56 19.7784C55.5373 19.6543 55.4881 19.5366 55.4156 19.4333C55.3432 19.33 55.2492 19.2436 55.1403 19.18C55.0313 19.1165 54.9099 19.0772 54.7844 19.0649C54.6588 19.0527 54.5321 19.0677 54.4129 19.109L51.0424 20.2771C49.6577 20.7511 48.4899 21.7078 47.7526 22.9721C47.0152 24.2364 46.7577 25.7239 47.027 27.1625L47.608 30.3519L46.9386 31.4981C46.8414 30.4939 46.4962 29.5296 45.934 28.6919C45.3717 27.8542 44.6102 27.1693 43.7178 26.6987L40.5678 25.0222C40.4563 24.9628 40.3333 24.9282 40.2073 24.9207C40.0812 24.9133 39.955 24.9333 39.8373 24.9792C39.7197 25.0252 39.6134 25.0961 39.5258 25.1871C39.4381 25.278 39.3712 25.3869 39.3296 25.5061L38.1563 28.8722C37.6397 30.3412 37.7041 31.952 38.3365 33.375H31.5806L30.2778 29.2039C29.9721 28.221 29.3021 27.3922 28.405 26.8874C27.508 26.3826 26.4518 26.24 25.453 26.4888C24.4542 26.7376 23.5884 27.359 23.033 28.2256C22.4776 29.0922 22.2746 30.1384 22.4658 31.1499L22.8875 33.375H21.75C20.5876 33.3757 19.4729 33.8376 18.6508 34.6595ZM51.6208 21.93L54.027 21.097L54.4829 23.6021C54.6747 24.63 54.49 25.6927 53.9625 26.5956C53.4349 27.4984 52.5999 28.1811 51.6103 28.5187L49.2049 29.3526L48.749 26.8475C48.5571 25.8196 48.7417 24.7569 49.269 23.8539C49.7963 22.9509 50.6312 22.2679 51.6208 21.93ZM39.25 58.75H28.75V56.9125C29.2322 56.9685 29.7171 56.9977 30.2025 57H37.7975C38.2829 56.9977 38.7678 56.9685 39.25 56.9125V58.75ZM48.875 44.1725C48.8755 45.6273 48.5893 47.068 48.0327 48.4122C47.4762 49.7564 46.6602 50.9778 45.6315 52.0065C44.6028 53.0352 43.3814 53.8512 42.0372 54.4077C40.693 54.9642 39.2524 55.2505 37.7975 55.25H30.2025C27.3655 55.2595 24.6339 54.1749 22.5761 52.2219C20.5183 50.2688 19.2926 47.5977 19.1539 44.764C20.1705 45.3303 21.3152 45.6268 22.4789 45.625H24.375C24.6071 45.625 24.8296 45.5328 24.9937 45.3687C25.1578 45.2046 25.25 44.9821 25.25 44.75C25.25 44.5179 25.1578 44.2954 24.9937 44.1313C24.8296 43.9672 24.6071 43.875 24.375 43.875H22.4754C21.2423 43.8767 20.051 43.4284 19.125 42.6141V41.2272C19.8778 41.8063 20.8002 42.1218 21.75 42.125H46.25C47.1996 42.1206 48.1216 41.8053 48.875 41.2272V44.1725ZM43.7834 40.375L44.9209 38.429L47.1591 39.857C47.2703 39.9287 47.3884 39.9804 47.5021 40.0434C47.1193 40.2575 46.6886 40.3716 46.25 40.375H43.7834ZM47.6334 35.1014C48.3202 34.3129 49.2681 33.7982 50.3034 33.6515C51.3387 33.5048 52.3922 33.7359 53.271 34.3025L55.4183 35.6719L53.7365 37.5837C53.0498 38.3723 52.1019 38.8871 51.0666 39.0338C50.0312 39.1806 48.9777 38.9494 48.0989 38.3826L45.9525 37.0124L47.6334 35.1014ZM39.8083 29.4497L40.6465 27.0452L42.8944 28.2422C43.8196 28.7294 44.5384 29.5333 44.9194 30.5071C45.3003 31.4808 45.318 32.5591 44.969 33.5447L44.1308 35.9484L41.882 34.7522C40.9573 34.2647 40.2389 33.4606 39.8583 32.4869C39.4777 31.5133 39.4602 30.4352 39.8091 29.4497H39.8083ZM39.5125 35.125C39.9631 35.5947 40.4853 35.9901 41.0595 36.2966L43.4063 37.5461L41.7578 40.375H33.7681L33.2213 38.625H34.875C35.1071 38.625 35.3296 38.5328 35.4937 38.3687C35.6578 38.2046 35.75 37.9821 35.75 37.75C35.75 37.5179 35.6578 37.2954 35.4937 37.1313C35.3296 36.9672 35.1071 36.875 34.875 36.875H32.6744L32.1275 35.125H39.5125ZM24.6725 28.9501C24.9345 28.6333 25.2772 28.3931 25.6645 28.255C26.0517 28.1169 26.4691 28.086 26.8724 28.1655C27.2758 28.245 27.6502 28.432 27.956 28.7067C28.2619 28.9814 28.4878 29.3337 28.61 29.7262L31.935 40.375H25.9763L24.186 30.827C24.1238 30.4976 24.1352 30.1586 24.2193 29.8341C24.3034 29.5097 24.4582 29.2078 24.6725 28.9501ZM23.2113 35.125L23.5394 36.875H21.75C21.5179 36.875 21.2954 36.9672 21.1313 37.1313C20.9672 37.2954 20.875 37.5179 20.875 37.75C20.875 37.9821 20.9672 38.2046 21.1313 38.3687C21.2954 38.5328 21.5179 38.625 21.75 38.625H23.8675L24.1956 40.375H21.75C21.0538 40.375 20.3861 40.0984 19.8939 39.6061C19.4016 39.1139 19.125 38.4462 19.125 37.75C19.125 37.0538 19.4016 36.3861 19.8939 35.8938C20.3861 35.4016 21.0538 35.125 21.75 35.125H23.2113Z" fill="#264065"/>
<path d="M28.7507 43.875H27.8757C27.6437 43.875 27.4211 43.9672 27.257 44.1313C27.0929 44.2954 27.0007 44.5179 27.0007 44.75C27.0007 44.982 27.0929 45.2046 27.257 45.3687C27.4211 45.5328 27.6437 45.625 27.8757 45.625H28.7507C28.9828 45.625 29.2054 45.5328 29.3694 45.3687C29.5335 45.2046 29.6257 44.982 29.6257 44.75C29.6257 44.5179 29.5335 44.2954 29.3694 44.1313C29.2054 43.9672 28.9828 43.875 28.7507 43.875ZM38.3757 38.625H39.2507C39.4828 38.625 39.7054 38.5328 39.8694 38.3687C40.0335 38.2046 40.1257 37.982 40.1257 37.75C40.1257 37.5179 40.0335 37.2954 39.8694 37.1313C39.7054 36.9672 39.4828 36.875 39.2507 36.875H38.3757C38.1437 36.875 37.9211 36.9672 37.757 37.1313C37.5929 37.2954 37.5007 37.5179 37.5007 37.75C37.5007 37.982 37.5929 38.2046 37.757 38.3687C37.9211 38.5328 38.1437 38.625 38.3757 38.625ZM28.0044 17.3966C27.8977 17.7245 27.8568 18.0703 27.8838 18.414C27.9109 18.7578 28.0054 19.0929 28.162 19.4001C28.3186 19.7074 28.5341 19.9807 28.7964 20.2046C29.0587 20.4285 29.3625 20.5985 29.6905 20.705C30.0632 20.8261 30.4527 20.8879 30.8446 20.8879C30.9592 20.8879 31.0712 20.8651 31.185 20.8546C31.0894 21.2405 31.0828 21.643 31.1655 22.0318C31.2482 22.4206 31.4182 22.7856 31.6626 23.0991C31.9069 23.4127 32.2193 23.6666 32.5762 23.8418C32.933 24.017 33.325 24.1089 33.7225 24.1105C33.8616 24.1105 34.0006 24.0997 34.1381 24.0781C34.4789 24.0251 34.8058 23.905 35.0999 23.7248C35.394 23.5445 35.6494 23.3077 35.8514 23.0281C36.1515 22.6159 36.3633 22.1461 36.4735 21.6482C36.9889 21.9677 37.5994 22.0982 38.2005 22.0172C38.8015 21.9363 39.3557 21.6489 39.7683 21.2044C40.1809 20.7599 40.4261 20.1859 40.4621 19.5805C40.4981 18.9751 40.3226 18.376 39.9656 17.8857C39.6691 17.4774 39.2925 17.1339 38.8587 16.876C39.32 16.4817 39.6305 15.9397 39.7372 15.3423C39.8439 14.7448 39.7404 14.1289 39.4441 13.5992C39.1479 13.0696 38.6773 12.6589 38.1124 12.4371C37.5475 12.2154 36.9232 12.1962 36.3457 12.3828C35.8659 12.5389 35.4229 12.7911 35.0437 13.124C34.8105 12.5646 34.391 12.1032 33.8563 11.818C33.3216 11.5327 32.7047 11.4413 32.1102 11.5592C31.5158 11.6771 30.9805 11.997 30.5951 12.4647C30.2097 12.9323 29.9979 13.519 29.9959 14.125C29.9959 14.6286 30.0983 15.1269 30.2969 15.5897C29.779 15.631 29.285 15.8246 28.8771 16.1461C28.4691 16.4677 28.1654 16.9028 28.0044 17.3966ZM38.5507 18.913C38.6183 19.0059 38.6669 19.1113 38.6937 19.223C38.7206 19.3348 38.7252 19.4507 38.7072 19.5642C38.6892 19.6777 38.6491 19.7866 38.5891 19.8846C38.5291 19.9826 38.4503 20.0678 38.3574 20.1354C38.2644 20.2029 38.159 20.2515 38.0473 20.2784C37.9356 20.3052 37.8196 20.3098 37.7061 20.2918C37.5926 20.2739 37.4837 20.2337 37.3858 20.1737C37.2878 20.1137 37.2025 20.0349 37.135 19.942L35.91 18.2559L36.6467 18.1334C37.0052 18.0728 37.3735 18.1138 37.7099 18.2515C38.0464 18.3893 38.3376 18.6184 38.5507 18.913ZM35.5582 15.6169C35.6109 15.257 35.7635 14.9191 35.9986 14.6416C36.2337 14.3641 36.5419 14.1582 36.8882 14.0471C36.9751 14.0181 37.0661 14.0033 37.1577 14.0034C37.3666 14.0025 37.5689 14.0765 37.728 14.2118C37.8871 14.3471 37.9926 14.5348 38.0253 14.7411C38.0581 14.9474 38.016 15.1586 37.9066 15.3365C37.7972 15.5145 37.6278 15.6474 37.429 15.7113L35.4471 16.3554L35.5582 15.6169ZM34.5905 19.9481C34.7594 20.2702 34.8346 20.6331 34.8077 20.9958C34.7808 21.3585 34.6528 21.7064 34.4382 22C34.3707 22.0929 34.2854 22.1717 34.1875 22.2317C34.0895 22.2917 33.9806 22.3319 33.8671 22.3498C33.7536 22.3678 33.6376 22.3632 33.5259 22.3364C33.4142 22.3095 33.3088 22.2609 33.2159 22.1934C33.1229 22.1258 33.0442 22.0406 32.9841 21.9426C32.9241 21.8446 32.884 21.7357 32.866 21.6222C32.848 21.5087 32.8526 21.3928 32.8795 21.281C32.9063 21.1693 32.9549 21.0639 33.0225 20.971L34.2475 19.2849L34.5905 19.9481ZM32.6209 13.25C32.8529 13.25 33.0755 13.3422 33.2396 13.5063C33.4037 13.6704 33.4959 13.8929 33.4959 14.125V16.2092L32.8274 15.875C32.5015 15.7136 32.2274 15.4641 32.0362 15.1547C31.845 14.8454 31.7444 14.4886 31.7459 14.125C31.7459 13.8929 31.838 13.6704 32.0021 13.5063C32.1662 13.3422 32.3888 13.25 32.6209 13.25ZM29.6695 17.9374C29.7265 17.7618 29.8377 17.6087 29.987 17.5001C30.1363 17.3915 30.3161 17.3329 30.5007 17.3327C30.5931 17.3327 30.6849 17.3472 30.7729 17.3756L32.7547 18.0196L32.2297 18.5525C31.9755 18.8124 31.6534 18.9958 31.3002 19.082C30.9469 19.1681 30.5766 19.1535 30.2312 19.0399C30.0105 18.9681 29.8274 18.8117 29.722 18.6049C29.6167 18.3982 29.5978 18.158 29.6695 17.9374ZM26.5169 15.4524C26.4141 15.4009 26.3022 15.3702 26.1875 15.362C26.0729 15.3538 25.9577 15.3683 25.8487 15.4047C25.7397 15.441 25.6388 15.4984 25.552 15.5737C25.4652 15.649 25.394 15.7407 25.3426 15.8435C25.0119 16.5089 24.8398 17.2419 24.8398 17.985C24.8398 18.7281 25.0119 19.4611 25.3426 20.1266C25.4156 20.2727 25.5281 20.3955 25.6672 20.481C25.8064 20.5665 25.9668 20.6114 26.1301 20.6105C26.2656 20.6105 26.3993 20.5787 26.5204 20.5177C26.6232 20.4664 26.715 20.3953 26.7904 20.3085C26.8657 20.2217 26.9233 20.1209 26.9597 20.0118C26.9961 19.9028 27.0107 19.7876 27.0025 19.6729C26.9944 19.5583 26.9638 19.4463 26.9124 19.3435C26.7022 18.9215 26.5927 18.4565 26.5927 17.985C26.5927 17.5136 26.7022 17.0486 26.9124 16.6266C26.9636 16.5236 26.9941 16.4114 27.002 16.2966C27.0098 16.1817 26.995 16.0665 26.9582 15.9574C26.9215 15.8483 26.8636 15.7476 26.7879 15.6609C26.7121 15.5742 26.62 15.5034 26.5169 15.4524ZM41.9291 20.8284C41.8371 20.9024 41.7611 20.9944 41.7056 21.0987C41.6501 21.2029 41.6163 21.3174 41.6062 21.435C41.5961 21.5527 41.6099 21.6712 41.6469 21.7834C41.6838 21.8956 41.7431 21.9992 41.8211 22.0878C41.8991 22.1765 41.9943 22.2485 42.1009 22.2994C42.2075 22.3503 42.3233 22.3791 42.4413 22.384C42.5593 22.389 42.6771 22.37 42.7876 22.3282C42.898 22.2864 42.9989 22.2227 43.0841 22.1409L43.239 22.0043C43.7577 21.5516 44.1392 20.9626 44.3402 20.304C44.5413 19.6455 44.5538 18.9439 44.3765 18.2786C44.3498 18.1649 44.3005 18.0577 44.2317 17.9634C44.1629 17.869 44.0759 17.7894 43.9759 17.7291C43.8758 17.6689 43.7647 17.6294 43.6491 17.6127C43.5335 17.5961 43.4158 17.6028 43.3028 17.6325C43.1898 17.6621 43.084 17.714 42.9914 17.7852C42.8988 17.8564 42.8214 17.9454 42.7637 18.0469C42.7061 18.1485 42.6694 18.2605 42.6557 18.3765C42.642 18.4925 42.6517 18.6101 42.6842 18.7222C42.7775 19.0738 42.7705 19.4445 42.6639 19.7923C42.5574 20.1401 42.3556 20.4511 42.0814 20.6901L41.9291 20.8284Z" fill="#264065"/>
</svg>
