<svg width="72" height="72" viewBox="0 0 72 72" fill="none" xmlns="http://www.w3.org/2000/svg">
<circle cx="36" cy="36" r="36" fill="#A9D6CB"/>
<path d="M20.571 51.0185C20.2253 50.7913 19.8945 50.5423 19.5805 50.273L18.4868 49.335C18.3104 49.1842 18.0813 49.1096 17.85 49.1277C17.6186 49.1457 17.4039 49.2549 17.253 49.4313C17.1022 49.6077 17.0276 49.8367 17.0456 50.0681C17.0637 50.2995 17.1729 50.5142 17.3493 50.665L18.443 51.6013C18.8136 51.9196 19.2043 52.2137 19.6129 52.4815C19.8069 52.6092 20.0437 52.6545 20.2711 52.6076C20.4985 52.5607 20.698 52.4253 20.8256 52.2313C20.9533 52.0373 20.9986 51.8005 20.9517 51.5731C20.9048 51.3457 20.7694 51.1462 20.5754 51.0185H20.571ZM27.9796 52.4868C27.4385 52.5786 26.8905 52.6248 26.3416 52.625H25.9383C24.9862 52.6253 24.0393 52.4858 23.1278 52.2112C22.9054 52.1443 22.6657 52.1686 22.4612 52.2785C22.2568 52.3884 22.1043 52.5751 22.0375 52.7974C21.9707 53.0197 21.9949 53.2595 22.1048 53.464C22.2148 53.6684 22.4014 53.8208 22.6238 53.8877C23.699 54.2107 24.8156 54.3749 25.9383 54.375H26.3416C26.9885 54.375 27.6342 54.3205 28.2719 54.2123C28.3852 54.1931 28.4936 54.1518 28.5909 54.0907C28.6883 54.0296 28.7726 53.95 28.8391 53.8563C28.9057 53.7626 28.9531 53.6567 28.9788 53.5447C29.0044 53.4327 29.0077 53.3167 28.9885 53.2034C28.9693 53.0901 28.928 52.9817 28.8669 52.8844C28.8058 52.7871 28.7262 52.7027 28.6325 52.6362C28.5388 52.5696 28.4329 52.5222 28.3209 52.4965C28.2089 52.4709 28.0929 52.4676 27.9796 52.4868ZM53.5148 49.335L52.421 50.273C52.107 50.5423 51.7762 50.7913 51.4305 51.0185C51.2365 51.1462 51.1012 51.3457 51.0542 51.5731C51.0073 51.8005 51.0526 52.0373 51.1803 52.2313C51.3079 52.4253 51.5074 52.5607 51.7348 52.6076C51.9622 52.6545 52.199 52.6092 52.393 52.4815C52.8012 52.2151 53.192 51.9228 53.5629 51.6065L54.6566 50.6694C54.744 50.5947 54.8157 50.5036 54.8678 50.4011C54.9199 50.2987 54.9513 50.187 54.9603 50.0725C54.9692 49.9579 54.9555 49.8427 54.9199 49.7334C54.8843 49.6242 54.8276 49.523 54.7529 49.4357C54.6782 49.3483 54.587 49.2766 54.4846 49.2245C54.3822 49.1724 54.2705 49.141 54.156 49.132C54.0414 49.1231 53.9262 49.1368 53.8169 49.1724C53.7077 49.208 53.6065 49.2647 53.5191 49.3394L53.5148 49.335ZM48.8738 52.2112C47.9622 52.4858 47.0153 52.6253 46.0633 52.625H45.6599C45.111 52.6248 44.5631 52.5786 44.0219 52.4868C43.9086 52.4676 43.7926 52.4709 43.6806 52.4965C43.5686 52.5222 43.4627 52.5696 43.369 52.6362C43.2754 52.7027 43.1957 52.7871 43.1346 52.8844C43.0735 52.9817 43.0322 53.0901 43.013 53.2034C42.9938 53.3167 42.9971 53.4327 43.0228 53.5447C43.0484 53.6567 43.0958 53.7626 43.1624 53.8563C43.2968 54.0455 43.5008 54.1735 43.7296 54.2123C44.3674 54.3205 45.0131 54.375 45.6599 54.375H46.0633C47.1859 54.3749 48.3026 54.2107 49.3778 53.8877C49.6001 53.8208 49.7867 53.6684 49.8967 53.464C50.0066 53.2595 50.0308 53.0197 49.964 52.7974C49.8972 52.5751 49.7448 52.3884 49.5403 52.2785C49.3358 52.1686 49.0961 52.1443 48.8738 52.2112Z" fill="#264065"/>
<path d="M53.5625 41.3997C52.5949 40.5754 51.4981 39.9162 50.3162 39.4484C51.2007 37.9864 51.7949 36.3676 52.0662 34.6805L53.4942 25.6366C53.5157 25.5002 53.5046 25.3607 53.4619 25.2295C53.4191 25.0982 53.346 24.979 53.2483 24.8814C53.1514 24.783 53.0321 24.7093 52.9007 24.6667C52.7693 24.6241 52.6295 24.6137 52.4932 24.6364L45.7627 25.6987L43.7345 20.7908C43.6817 20.6634 43.5996 20.5503 43.4949 20.4607C43.3901 20.371 43.2657 20.3074 43.1317 20.275C42.9977 20.2426 42.8579 20.2423 42.7238 20.2741C42.5897 20.306 42.4649 20.3691 42.3598 20.4583L40.1881 22.3037L36.7598 16.3126C36.6769 16.1869 36.5641 16.0838 36.4316 16.0125C36.299 15.9411 36.1509 15.9038 36.0003 15.9038C35.8498 15.9038 35.7016 15.9411 35.5691 16.0125C35.4365 16.0838 35.3237 16.1869 35.2408 16.3126L31.817 22.3002L29.6452 20.4548C29.5405 20.3649 29.4159 20.3012 29.2816 20.2693C29.1474 20.2373 29.0074 20.2379 28.8735 20.2711C28.7395 20.3034 28.615 20.3669 28.5103 20.4565C28.4055 20.5461 28.3234 20.6591 28.2706 20.7864L26.2677 25.6208L20.001 24.632C19.8647 24.6107 19.7254 24.6218 19.5943 24.6645C19.4632 24.7072 19.344 24.7802 19.2465 24.8777C19.149 24.9752 19.0759 25.0944 19.0332 25.2255C18.9905 25.3566 18.9794 25.496 19.0008 25.6322L20.4253 34.6875C20.6917 36.3142 21.2552 37.8779 22.0878 39.3005C20.7534 39.7699 19.5173 40.4819 18.4417 41.4006L15.3092 44.0868C15.2134 44.1689 15.1366 44.2708 15.0839 44.3855C15.0312 44.5001 15.0039 44.6248 15.0039 44.7509C15.0039 44.8771 15.0312 45.0018 15.0839 45.1164C15.1366 45.231 15.2134 45.3329 15.3092 45.415L18.4391 48.1013C20.5287 49.8891 23.1877 50.8727 25.9378 50.875H26.3403C27.5282 50.8759 28.709 50.692 29.8403 50.3299C30.5118 53.9678 32.5223 57.2219 35.4753 59.4501C35.6268 59.5636 35.811 59.625 36.0003 59.625C36.1897 59.625 36.3739 59.5636 36.5253 59.4501C39.4794 57.2227 41.4913 53.9689 42.1638 50.3308C43.2953 50.6922 44.476 50.8758 45.6638 50.875H46.0663C48.8168 50.8727 51.4762 49.8888 53.566 48.1004L56.6985 45.4142C56.7942 45.332 56.8711 45.2302 56.9238 45.1155C56.9765 45.0009 57.0037 44.8762 57.0037 44.75C57.0037 44.6239 56.9765 44.4992 56.9238 44.3846C56.8711 44.2699 56.7942 44.1681 56.6985 44.0859L53.5625 41.3997ZM51.5753 26.5501L50.3328 34.4076C50.0729 36.0701 49.4536 37.656 48.5181 39.0547C47.5222 40.5384 46.2003 41.7749 44.6535 42.6696C43.1067 43.5643 41.3758 44.0937 39.5931 44.2172L39.0961 44.2504C38.2322 44.312 37.3676 44.1404 36.5927 43.7534C36.5813 43.7482 36.5717 43.7429 36.5595 43.7386C36.0942 43.5024 35.6692 43.1941 35.3003 42.825V42.825C34.8055 42.3302 34.4222 41.7353 34.1761 41.0802C33.93 40.4251 33.8267 39.7249 33.8732 39.0267L33.9056 38.5297C34.0812 35.8924 35.148 33.3932 36.931 31.4421C38.7139 29.4909 41.1071 28.2037 43.7178 27.7917L51.5753 26.5501ZM42.5725 22.5697L43.9812 25.9822L43.4448 26.0697C43.0948 26.1248 42.7448 26.2097 42.3948 26.2946C42.1525 25.7984 41.9031 25.3137 41.6441 24.8604L41.0692 23.8542L42.5725 22.5697ZM31.8773 25.7249L36.0003 18.5132L40.1233 25.7249C40.3237 26.0749 40.5145 26.4354 40.7008 26.8064C39.7876 27.1583 38.9156 27.609 38.1003 28.1504C37.4369 28.6017 36.816 29.1125 36.2453 29.6764C34.8721 28.3139 33.2083 27.2797 31.3786 26.6516C31.544 26.3304 31.7128 26.0251 31.8773 25.7249ZM29.4273 22.5688L30.9332 23.8489L30.3557 24.8604C30.1212 25.2769 29.892 25.7162 29.6627 26.1729C29.4475 26.1283 29.2427 26.0924 29.0415 26.0635L28.0457 25.9061L29.4273 22.5688ZM20.9171 26.5501L28.7772 27.7908C29.1601 27.849 29.5398 27.927 29.9147 28.0244C31.8671 28.5284 33.6495 29.5449 35.0772 30.9688C33.3766 33.098 32.3623 35.6934 32.1687 38.4116L32.1363 38.9086C32.0725 39.8557 32.2122 40.8055 32.5461 41.6942C32.8799 42.5828 33.4002 43.3897 34.0718 44.0606C34.1287 44.1183 34.1917 44.1682 34.2512 44.2233C33.969 44.2564 33.6845 44.2664 33.4007 44.253L32.8941 44.2172C32.2415 44.1746 31.594 44.0735 30.9595 43.9153C29.8644 43.6562 28.8125 43.2401 27.8366 42.6798C26.3761 41.8367 25.1181 40.6838 24.1511 39.3023L23.9761 39.0564C23.0435 37.6569 22.4247 36.0722 22.1622 34.4111L20.9171 26.5501ZM26.3403 49.125H25.9378C23.6054 49.1229 21.3501 48.289 19.5775 46.7731L17.2193 44.75L19.5818 42.727C20.6114 41.8508 21.8124 41.1987 23.1081 40.8125C24.9557 43.227 27.5847 44.9244 30.5456 45.6145C31.2765 45.7975 32.0224 45.9146 32.7742 45.9646L33.2791 46.0004C33.3561 46.0048 33.4331 46.0057 33.5092 46.0074L33.2467 46.2699C32.369 47.1514 31.3291 47.8547 30.1842 48.341C28.9693 48.8603 27.6615 49.127 26.3403 49.125ZM36.0003 57.6344C33.5809 55.6066 31.9799 52.7694 31.495 49.65C32.6007 49.1022 33.6101 48.3785 34.484 47.5072L36.0003 45.9873L37.5167 47.5037C38.3907 48.375 39.4001 49.0989 40.5057 49.6474C40.0213 52.7677 38.4203 55.606 36.0003 57.6344V57.6344ZM52.4241 46.7722C50.6513 48.2886 48.3957 49.1229 46.0628 49.125H45.6603C44.3369 49.1263 43.027 48.8584 41.8103 48.3375C40.6675 47.8503 39.6294 47.1471 38.7531 46.2664L38.4845 45.9978C38.5798 45.9978 38.6752 46.0118 38.7706 46.0118C38.9185 46.0118 39.0672 46.0074 39.2151 45.9978L39.7121 45.9646C41.5678 45.8325 43.3762 45.3179 45.0235 44.4531C46.6707 43.5883 48.1212 42.392 49.2837 40.9394C50.4311 41.3369 51.4951 41.943 52.4223 42.727L54.7813 44.75L52.4241 46.7722Z" fill="#264065"/>
<path d="M13.25 43.875H11.5V45.625H13.25V43.875Z" fill="#264065"/>
<path d="M18.5 22H16.75V23.75H18.5V22Z" fill="#264065"/>
<path d="M36.875 12.375H35.125V14.125H36.875V12.375Z" fill="#264065"/>
<path d="M55.25 22H53.5V23.75H55.25V22Z" fill="#264065"/>
<path d="M60.5 43.875H58.75V45.625H60.5V43.875Z" fill="#264065"/>
</svg>
