<svg width="72" height="72" viewBox="0 0 72 72" fill="none" xmlns="http://www.w3.org/2000/svg">
<circle cx="36" cy="36" r="36" fill="#A9D6CB"/>
<path d="M23.9706 53.4056L24.7029 54.5772C25.8263 56.3627 27.3669 57.8483 29.192 58.906C31.017 59.9637 33.0719 60.5619 35.1796 60.6489C37.2872 60.736 39.3844 60.3093 41.2905 59.4057C43.1966 58.5021 44.8544 57.1486 46.1212 55.4619L47.4048 53.7504C49.07 51.5218 49.979 48.8192 49.9992 46.0372L53.0617 43.484C53.5106 43.1125 53.8776 42.6518 54.1393 42.1312C54.4011 41.6106 54.552 41.0414 54.5825 40.4595C54.6131 39.8776 54.5225 39.2956 54.3166 38.7505C54.1107 38.2054 53.7939 37.7089 53.3863 37.2925C53.4587 37.1652 53.4975 37.0216 53.4992 36.8751V31.6251C53.4961 28.6757 52.747 25.775 51.3216 23.1929C49.8963 20.6108 47.8409 18.4312 45.3468 16.8569L44.3782 14.9319C43.6014 13.3746 42.406 12.0646 40.9261 11.149C39.4462 10.2333 37.7403 9.74829 36.0001 9.74829C34.2598 9.74829 32.554 10.2333 31.0741 11.149C29.5941 12.0646 28.3987 13.3746 27.6219 14.9319L26.9044 16.3581C26.844 16.4823 26.814 16.6191 26.8169 16.7571C24.2661 18.3077 22.1596 20.4917 20.7021 23.0969C19.2447 25.7021 18.4858 28.64 18.4992 31.6251V36.8751C18.5023 37.0207 18.543 37.1629 18.6173 37.2881C18.2085 37.7042 17.8906 38.2007 17.6838 38.7461C17.4769 39.2915 17.3857 39.8739 17.4158 40.4564C17.4459 41.039 17.5967 41.6089 17.8587 42.1301C18.1206 42.6512 18.488 43.1123 18.9376 43.484L21.9992 46.0346V46.5316C21.9984 48.9625 22.6815 51.3446 23.9706 53.4056ZM48.2492 36.8751V45.969C48.2441 48.3957 47.4571 50.7562 46.0048 52.7004L44.7221 54.4119C43.6292 55.8762 42.1958 57.052 40.546 57.8373C38.8962 58.6227 37.0798 58.994 35.2542 58.919C33.4285 58.844 31.6487 58.325 30.0689 57.407C28.4891 56.489 27.1569 55.1996 26.1878 53.6506L25.4546 52.4781C24.3395 50.6952 23.7485 48.6345 23.7492 46.5316V36.8751C23.7441 36.8383 23.7368 36.8017 23.7273 36.7657C24.9961 35.9835 26.2289 35.1487 27.4146 34.2501H40.5982L48.2492 36.5006V36.8751ZM29.5846 32.5001C30.1157 32.0442 30.6398 31.5787 31.1499 31.1001C32.1791 31.6486 33.2612 32.0916 34.3796 32.4222L34.6482 32.501L29.5846 32.5001ZM52.6557 39.3111C52.8514 39.7977 52.8876 40.3338 52.759 40.8422C52.6303 41.3507 52.3435 41.8051 51.9399 42.14L49.9992 43.757V37.7501H50.3492C50.8461 37.748 51.332 37.8959 51.7435 38.1744C52.155 38.4529 52.4729 38.8491 52.6557 39.3111ZM35.9992 11.5001C37.3611 11.498 38.6983 11.8636 39.8697 12.5583C41.0411 13.253 42.0032 14.2511 42.6544 15.4472C42.4392 15.3597 42.2169 15.2871 41.9973 15.2066C41.9903 15.2066 41.9851 15.197 41.9781 15.1944C41.9457 15.183 41.9124 15.1751 41.8801 15.1637C41.4671 15.015 41.0474 14.882 40.6209 14.7647C40.5142 14.735 40.4083 14.7096 40.3016 14.6825C39.9227 14.5862 39.5429 14.4961 39.1544 14.4252C38.9348 14.3841 38.7169 14.357 38.4938 14.3237C38.2042 14.2826 37.9172 14.2362 37.6188 14.2074C37.0824 14.1557 36.5417 14.1251 35.9992 14.1251C33.7114 14.1314 31.4471 14.5863 29.3343 15.4639C29.9835 14.2627 30.946 13.2598 32.1195 12.5619C33.2931 11.8639 34.6338 11.497 35.9992 11.5001ZM35.9992 15.8751C36.4909 15.8751 36.9748 15.9049 37.4552 15.9486C37.7291 15.9749 38.0021 16.0177 38.2751 16.0589C38.4597 16.086 38.6443 16.1096 38.8263 16.1464C39.1877 16.2137 39.5473 16.296 39.9061 16.3887C39.9822 16.4089 40.0592 16.4272 40.1344 16.4482C40.5323 16.5579 40.9275 16.683 41.3201 16.8236C44.3689 17.9198 47.0059 19.9289 48.872 22.5774C50.7382 25.226 51.7428 28.3852 51.7492 31.6251V35.7061L34.8731 30.7422C32.4797 30.0398 30.2921 28.7678 28.4978 27.0352C26.7034 25.3025 25.3557 23.1608 24.5699 20.7935C26.0357 19.2334 27.8067 17.9917 29.773 17.1455C31.7393 16.2994 33.8586 15.8669 35.9992 15.8751ZM20.2492 31.6251C20.2487 28.2909 21.3114 25.0434 23.2828 22.3545C24.5579 25.5242 26.7496 28.2415 29.5776 30.1586C28.5923 31.0639 27.5677 31.9244 26.5037 32.7399C26.4949 32.7486 26.4844 32.7539 26.4757 32.7626C24.9284 33.9466 23.3053 35.0281 21.6168 36.0001C21.1506 36.0051 20.6885 36.0873 20.2492 36.2434V31.6251ZM20.0584 42.14C19.6662 41.8134 19.3843 41.3738 19.2509 40.8811C19.1175 40.3884 19.1393 39.8666 19.3132 39.3868C19.4871 38.9069 19.8046 38.4923 20.2226 38.1994C20.6407 37.9066 21.1388 37.7497 21.6492 37.7501H21.9992V43.757L20.0584 42.14Z" fill="#264065"/>
<path d="M35.125 41.25C35.125 40.2117 34.8171 39.1966 34.2402 38.3333C33.6633 37.4699 32.8434 36.797 31.8841 36.3996C30.9248 36.0023 29.8692 35.8983 28.8508 36.1009C27.8324 36.3035 26.8969 36.8035 26.1627 37.5377C25.4285 38.2719 24.9285 39.2074 24.7259 40.2258C24.5233 41.2442 24.6273 42.2998 25.0246 43.2591C25.422 44.2184 26.0949 45.0383 26.9583 45.6152C27.8216 46.1921 28.8367 46.5 29.875 46.5C31.267 46.4986 32.6015 45.945 33.5858 44.9608C34.57 43.9765 35.1236 42.642 35.125 41.25ZM29.875 44.75C29.1828 44.75 28.5061 44.5447 27.9305 44.1601C27.3549 43.7756 26.9063 43.2289 26.6414 42.5894C26.3765 41.9499 26.3072 41.2461 26.4423 40.5672C26.5773 39.8883 26.9106 39.2646 27.4001 38.7751C27.8896 38.2856 28.5133 37.9523 29.1922 37.8173C29.8711 37.6822 30.5749 37.7515 31.2144 38.0164C31.8539 38.2813 32.4006 38.7299 32.7851 39.3055C33.1697 39.8811 33.375 40.5578 33.375 41.25C33.375 42.1783 33.0063 43.0685 32.3499 43.7249C31.6935 44.3813 30.8033 44.75 29.875 44.75Z" fill="#264065"/>
<path d="M30.75 38.625H29V40.375H30.75V38.625Z" fill="#264065"/>
<path d="M30.75 42.125H29V43.875H30.75V42.125Z" fill="#264065"/>
<path d="M32.5 40.375H30.75V42.125H32.5V40.375Z" fill="#264065"/>
<path d="M29 40.375H27.25V42.125H29V40.375Z" fill="#264065"/>
<path d="M36.875 41.25C36.875 42.2884 37.1829 43.3034 37.7598 44.1667C38.3367 45.0301 39.1566 45.703 40.1159 46.1004C41.0752 46.4977 42.1308 46.6017 43.1492 46.3991C44.1676 46.1966 45.1031 45.6965 45.8373 44.9623C46.5715 44.2281 47.0716 43.2926 47.2741 42.2742C47.4767 41.2558 47.3727 40.2002 46.9754 39.2409C46.578 38.2816 45.9051 37.4617 45.0417 36.8848C44.1784 36.3079 43.1634 36 42.125 36C40.733 36.0014 39.3985 36.555 38.4142 37.5392C37.43 38.5235 36.8764 39.858 36.875 41.25ZM42.125 37.75C42.8172 37.75 43.4939 37.9553 44.0695 38.3399C44.6451 38.7244 45.0937 39.2711 45.3586 39.9106C45.6235 40.5501 45.6928 41.2539 45.5577 41.9328C45.4227 42.6118 45.0894 43.2354 44.5999 43.7249C44.1104 44.2144 43.4868 44.5477 42.8078 44.6827C42.1289 44.8178 41.4251 44.7485 40.7856 44.4836C40.1461 44.2187 39.5994 43.7701 39.2149 43.1945C38.8303 42.6189 38.625 41.9422 38.625 41.25C38.625 40.3217 38.9938 39.4315 39.6501 38.7751C40.3065 38.1188 41.1967 37.75 42.125 37.75Z" fill="#264065"/>
<path d="M43 38.625H41.25V40.375H43V38.625Z" fill="#264065"/>
<path d="M43 42.125H41.25V43.875H43V42.125Z" fill="#264065"/>
<path d="M44.75 40.375H43V42.125H44.75V40.375Z" fill="#264065"/>
<path d="M41.25 40.375H39.5V42.125H41.25V40.375Z" fill="#264065"/>
<path d="M39.7573 51.1314C38.7603 52.1262 37.4094 52.6849 36.001 52.6849C34.5925 52.6849 33.2416 52.1262 32.2446 51.1314C32.0796 50.972 31.8585 50.8838 31.6291 50.8858C31.3997 50.8878 31.1802 50.9798 31.018 51.142C30.8558 51.3043 30.7637 51.5237 30.7618 51.7531C30.7598 51.9826 30.848 52.2036 31.0073 52.3686C32.3328 53.6911 34.1286 54.4338 36.001 54.4338C37.8733 54.4338 39.6692 53.6911 40.9946 52.3686C41.154 52.2036 41.2422 51.9826 41.2402 51.7531C41.2382 51.5237 41.1462 51.3043 40.9839 51.142C40.8217 50.9798 40.6022 50.8878 40.3728 50.8858C40.1434 50.8838 39.9224 50.972 39.7573 51.1314Z" fill="#264065"/>
<path d="M33.8591 49.9125L35.6091 50.7875C35.7119 50.8389 35.8239 50.8695 35.9386 50.8776C36.0532 50.8857 36.1684 50.8711 36.2774 50.8347C36.3865 50.7983 36.4873 50.7408 36.5741 50.6654C36.6609 50.5901 36.732 50.4984 36.7834 50.3955C36.8347 50.2927 36.8653 50.1807 36.8734 50.0661C36.8815 49.9514 36.8669 49.8363 36.8305 49.7272C36.7941 49.6182 36.7366 49.5174 36.6613 49.4306C36.5859 49.3438 36.4942 49.2726 36.3914 49.2213L35.3492 48.7007L36.8184 44.8349C36.8591 44.7275 36.8784 44.613 36.8749 44.4982C36.8715 44.3833 36.8455 44.2702 36.7984 44.1654C36.7512 44.0606 36.6839 43.9661 36.6003 43.8873C36.5166 43.8085 36.4183 43.7469 36.3109 43.7062C36.2034 43.6654 36.089 43.6461 35.9741 43.6496C35.8593 43.653 35.7462 43.679 35.6414 43.7261C35.5366 43.7733 35.4421 43.8406 35.3633 43.9242C35.2844 44.0079 35.2229 44.1062 35.1821 44.2137L33.4321 48.8188C33.355 49.0216 33.356 49.2458 33.4349 49.4479C33.5138 49.65 33.665 49.8156 33.8591 49.9125Z" fill="#264065"/>
</svg>
